<?xml version="1.0" encoding="UTF-8" standalone="no"?>
<svg
   xmlns:dc="http://purl.org/dc/elements/1.1/"
   xmlns:cc="http://creativecommons.org/ns#"
   xmlns:rdf="http://www.w3.org/1999/02/22-rdf-syntax-ns#"
   xmlns:svg="http://www.w3.org/2000/svg"
   xmlns="http://www.w3.org/2000/svg"
   xmlns:sodipodi="http://sodipodi.sourceforge.net/DTD/sodipodi-0.dtd"
   xmlns:inkscape="http://www.inkscape.org/namespaces/inkscape"
   width="75"
   height="16"
   viewBox="0 0 19.843751 4.2333334"
   version="1.1"
   id="svg6630"
   inkscape:version="1.0.1 (3bc2e813f5, 2020-09-07)"
   sodipodi:docname="banner.svg"
   inkscape:export-filename="banner.png"
   inkscape:export-xdpi="1536"
   inkscape:export-ydpi="1536">
  <defs
     id="defs6624">
    <filter
       style="color-interpolation-filters:sRGB"
       id="filter1010"
       inkscape:label="勾边">
      <feMorphology
         id="feMorphology1032"
         result="result1"
         operator="dilate"
         radius="0.5" />
      <feComponentTransfer
         id="feComponentTransfer1054"
         result="result2">
        <feFuncR
           id="feFuncR1056"
           type="gamma"
           amplitude="2.7999999999999998" />
        <feFuncG
           id="feFuncG1058"
           type="gamma"
           amplitude="2.7999999999999998" />
        <feFuncB
           id="feFuncB1060"
           type="gamma"
           amplitude="2.7999999999999998"
           exponent="1"
           offset="0"
           slope="10"
           intercept="-10"
           tableValues="" />
        <feFuncA
           id="feFuncA1062"
           type="identity" />
      </feComponentTransfer>
      <feMerge
         id="feMerge1074">
        <feMergeNode
           inkscape:collect="always"
           id="feMergeNode1076"
           in="result2" />
        <feMergeNode
           inkscape:collect="always"
           id="feMergeNode1080"
           in="SourceGraphic" />
      </feMerge>
    </filter>
    <filter
       style="color-interpolation-filters:sRGB"
       id="filter1082"
       inkscape:label="滤镜1">
      <feOffset
         dx="1"
         dy="1"
         id="feOffset1096"
         preserveAlpha="false" />
    </filter>
  </defs>
  <sodipodi:namedview
     id="base"
     pagecolor="#ff89b8"
     bordercolor="#666666"
     borderopacity="1.0"
     inkscape:pageopacity="0"
     inkscape:pageshadow="2"
     inkscape:zoom="11.313709"
     inkscape:cx="43.795504"
     inkscape:cy="10.887871"
     inkscape:document-units="px"
     inkscape:current-layer="layer3"
     showgrid="true"
     units="px"
     inkscape:window-width="1920"
     inkscape:window-height="1027"
     inkscape:window-x="-8"
     inkscape:window-y="-8"
     inkscape:window-maximized="1"
     inkscape:pagecheckerboard="false"
     inkscape:document-rotation="0"
     fit-margin-top="0"
     fit-margin-left="0"
     fit-margin-right="0"
     fit-margin-bottom="0"
     lock-margins="true">
    <inkscape:grid
       type="xygrid"
       id="grid7175"
       empspacing="4"
       spacingx="0.13229167"
       spacingy="0.13229167"
       originx="0.00020831255"
       originy="0.04233333" />
  </sodipodi:namedview>
  <metadata
     id="metadata6627">
    <rdf:RDF>
      <cc:Work
         rdf:about="">
        <dc:format>image/svg+xml</dc:format>
        <dc:type
           rdf:resource="http://purl.org/dc/dcmitype/StillImage" />
        <dc:title></dc:title>
      </cc:Work>
    </rdf:RDF>
  </metadata>
  <path
     style="fill:#edd400;fill-opacity:1;stroke:none;stroke-width:0.00600001;stroke-miterlimit:4;stroke-dasharray:none"
     d="m 0.5289373,2.4280591 c 0,-1.2651871 0.001463,-1.58095059 0.007308,-1.57596539 0.00402,0.003429 0.12833114,0.16786999 0.27624812,0.36542459 l 0.26893998,0.3591903 0.054158,0.027008 0.054158,0.027008 h 0.9294329 0.9294334 l 0.050153,-0.024847 0.050153,-0.024848 0.2751227,-0.3668692 C 3.575362,1.0123824 3.7001641,0.84729124 3.7013823,0.84729124 c 0.00122,0 0.00222,0.65112936 0.00222,1.44695426 v 1.4469543 l -0.264555,0.00151 -0.2645551,0.00151 -0.00156,0.1330084 -0.00156,0.1330084 H 1.8501412 0.5289373 Z"
     id="path2762"
     inkscape:label="填充" />
  <g
     inkscape:groupmode="layer"
     id="layer3"
     inkscape:label="主图像"
     transform="translate(2.0832285e-4,0.04233334)">
    <g
       inkscape:groupmode="layer"
       id="layer2"
       inkscape:label="外轮廓"
       style="display:none">
      <path
         style="display:none;fill:none;stroke:#eeeeec;stroke-width:0.264583px;stroke-linecap:butt;stroke-linejoin:miter;stroke-opacity:1"
         d="M 0.396875,4.1010417 H 3.3072917"
         id="path2758"
         sodipodi:nodetypes="cc" />
      <path
         style="fill:none;stroke:#eeeeec;stroke-width:0.265;stroke-linecap:butt;stroke-linejoin:round;stroke-miterlimit:4;stroke-dasharray:none;stroke-opacity:1"
         d="M 3.1750001,4.1010417 H 3.889375 L 4.1010418,3.889375 V 0.3175 L 3.7041666,0.15875 2.9104166,1.1906249 H 1.3229167 L 0.52916668,0.15875 0.13229167,0.3175 v 3.7835416 l 0.39687501,10e-8"
         id="path5140"
         inkscape:connector-curvature="0"
         sodipodi:nodetypes="ccccccccccc" />
    </g>
    <g
       inkscape:label="主轮廓"
       id="layer1"
       transform="translate(0,-292.76665)"
       style="display:inline">
      <circle
         style="display:inline;fill:#eeeeec;fill-opacity:1;stroke:none;stroke-width:0.304206;stroke-linecap:square;stroke-linejoin:bevel;stroke-miterlimit:4;stroke-dasharray:none;stroke-opacity:1;paint-order:fill markers stroke"
         id="path7179"
         cx="1.3229167"
         cy="295.14789"
         inkscape:label="左眼"
         r="0.5291667" />
      <circle
         style="display:inline;fill:#eeeeec;fill-opacity:1;stroke:none;stroke-width:0.355547;stroke-linecap:square;stroke-linejoin:bevel;stroke-miterlimit:4;stroke-dasharray:none;stroke-opacity:1;paint-order:fill markers stroke"
         id="path7181"
         cx="2.9104166"
         cy="295.14789"
         inkscape:label="右眼"
         r="0.5291667" />
      <path
         style="display:inline;fill:none;stroke:#555753;stroke-width:0.257737;stroke-linecap:round;stroke-linejoin:round;stroke-miterlimit:4;stroke-dasharray:none;stroke-opacity:1"
         d="m 1.4530829,296.07486 0.265435,0.26709 0.3981523,-0.27144 0.3981524,0.27144 0.265435,-0.26709"
         id="path7183"
         inkscape:connector-curvature="0"
         sodipodi:nodetypes="ccccc"
         inkscape:label="嘴" />
      <path
         style="display:inline;fill:none;stroke:#555753;stroke-width:0.264583;stroke-linecap:square;stroke-linejoin:bevel;stroke-miterlimit:4;stroke-dasharray:none;stroke-opacity:1"
         d="m 0.39687501,296.60311 v -3.43959 l 0.79374999,1.05834 h 1.8520834 l 0.79375,-1.05834 v 3.43959 H 3.3072918"
         id="path7250"
         inkscape:connector-curvature="0"
         sodipodi:nodetypes="ccccccc"
         inkscape:label="外框" />
      <circle
         style="display:inline;fill:#2e3436;fill-opacity:1;stroke:none;stroke-width:0.228154;stroke-linecap:square;stroke-linejoin:bevel;stroke-miterlimit:4;stroke-dasharray:none;stroke-opacity:1;paint-order:fill markers stroke"
         id="path7179-1"
         cx="1.3229166"
         cy="295.14789"
         inkscape:label="左眼黑"
         r="0.39687499" />
      <circle
         style="display:inline;fill:#2e3436;fill-opacity:1;stroke:none;stroke-width:0.228154;stroke-linecap:square;stroke-linejoin:bevel;stroke-miterlimit:4;stroke-dasharray:none;stroke-opacity:1;paint-order:fill markers stroke"
         id="path7179-1-1"
         cx="2.9104166"
         cy="295.14789"
         inkscape:label="右眼黑"
         r="0.39687499" />
    </g>
  </g>
  <g
     inkscape:groupmode="layer"
     id="layer4"
     inkscape:label="外框"
     transform="translate(-1.0282557e-8,0.06858612)"
     style="display:none">
    <rect
       style="fill:none;stroke:#eeeeec;stroke-width:0.264583;stroke-linecap:square;stroke-linejoin:miter;stroke-miterlimit:4;stroke-dasharray:none;paint-order:fill markers stroke"
       id="rect843"
       width="3.96875"
       height="3.96875"
       x="0.13249999"
       y="0.10603888" />
  </g>
  <g
     inkscape:groupmode="layer"
     id="layer5"
     inkscape:label="标题文字"
     transform="translate(2.0832285e-4,0.04233334)">
    <path
       id="path948"
       style="fill:none;stroke:#555753;stroke-width:1;stroke-linecap:square;stroke-linejoin:bevel;stroke-miterlimit:4;stroke-dasharray:none;stroke-opacity:1"
       transform="scale(0.26458333)"
       d="m 70,7.5 a 3.5000007,3.5 0 0 0 -3.5,3.5 3.5000007,3.5 0 0 0 0.02344,0.386719 l 6.953124,-0.773438 A 3.5000007,3.5 0 0 0 70,7.5 Z m 0,3.5 -3.476562,0.386719 A 3.5000007,3.5 0 0 0 70,14.5 3.5000007,3.5 0 0 0 72.474887,13.47486 M 59.499999,7.5000001 h 4.999998 m -3,-3 V 14.5 h 3 m -5.999996,-3.500001 a 3.5,3.5 0 0 1 -3.500002,3.5 3.5,3.5 0 0 1 -3.500001,-3.5 3.5,3.5 0 0 1 3.500001,-3.5 3.5,3.5 0 0 1 3.500002,3.5 z M 42.500002,14.5 V 1.2 l 7.000002,13.6 V 1.5 m -9.000003,9.499999 a 3.5,3.5 0 0 1 -3.500001,3.5 3.5,3.5 0 0 1 -3.5,-3.5 3.5,3.5 0 0 1 3.5,-3.5 3.5,3.5 0 0 1 3.500001,3.5 z M 31.5,11 A 3.5,3.5 0 0 1 28,14.5 3.5,3.5 0 0 1 24.5,11 3.5,3.5 0 0 1 28,7.4999997 3.5,3.5 0 0 1 31.5,11 Z M 18.500001,7.5000001 h 5 m 2,-6.0000001 h -7 V 7.5000001 14.5" />
  </g>
</svg>
